Coordinates
version=1
nRows=19
nColumns=24
inDegrees=yes

Units are S.I. units (second, meters, Newtons, ...)
Angles are in degrees.

endheader
time	pelvis_tilt	pelvis_list	pelvis_rotation	pelvis_tx	pelvis_ty	pelvis_tz	hip_flexion_r	hip_adduction_r	hip_rotation_r	knee_angle_r	ankle_angle_r	subtalar_angle_r	mtp_angle_r	hip_flexion_l	hip_adduction_l	hip_rotation_l	knee_angle_l	ankle_angle_l	subtalar_angle_l	mtp_angle_l	lumbar_extension	lumbar_bending	lumbar_rotation
     12.11000000	     -8.01951870	     -2.57536828	     15.67855455	     -1.90426010	     -0.02188814	     -0.32208016	     32.23423200	     -3.69859585	    -14.94282499	    -11.99731796	     -1.36467481	      6.69696766	     13.71876851	     -5.47536423	     -0.90176141	     14.98641251	    -15.49988087	      7.74019716	      8.05017808	     19.30179087	      5.14911071	     -2.11918423	    -11.62411611
     12.11500000	     -8.04083586	     -2.66583229	     15.83992312	     -1.89740895	     -0.02276478	     -0.32190225	     32.20769041	     -3.68310878	    -15.34759857	    -12.61909013	     -1.80122915	      6.58300487	     14.18106060	     -5.39348540	     -1.14021296	     14.71270715	    -16.34094622	      7.66304491	      9.09329737	     19.54809065	      5.34469852	     -2.00577618	    -11.61459326
     12.12000000	     -8.11529490	     -2.78725258	     15.90763645	     -1.89048743	     -0.02365467	     -0.32157694	     32.26950566	     -3.59469076	    -15.63191579	    -13.24152653	     -2.37011383	      6.38795024	     14.72565940	     -5.22397846	     -1.41538264	     14.18834258	    -17.20012718	      7.46179686	     10.27610327	     20.16792848	      5.61785290	     -1.86237600	    -11.47701904
     12.12500000	     -8.19508635	     -2.94191988	     15.95305756	     -1.88358993	     -0.02447077	     -0.32119359	     32.34570880	     -3.44829297	    -15.78662941	    -13.82595663	     -3.06967494	      6.05459641	     15.30867874	     -5.00252966	     -1.73688439	     13.61090626	    -18.09552703	      7.12926195	     11.49800496	     21.07818179	      5.90024254	     -1.68455804	    -11.33820448
     12.13000000	     -8.28642998	     -3.08459477	     15.83545050	     -1.87662778	     -0.02519120	     -0.32061554	     32.44410016	     -3.19027186	    -15.54504084	    -14.31110966	     -4.29770872	      5.23820343	     16.70796331	     -4.82546181	     -2.04976788	     12.92544983	    -18.83091463	      6.28998541	     12.38590602	     23.09694241	      6.19852238	     -1.48827506	    -10.98402714
     12.13500000	     -8.33657137	     -3.27719233	     15.86084177	     -1.86985238	     -0.02576209	     -0.32015338	     32.52630156	     -2.96087970	    -15.47354995	    -14.89155424	     -5.06974520	      4.78765319	     17.35543170	     -4.53297085	     -2.44627512	     12.21250834	    -19.80875571	      5.64829117	     13.66885207	     24.48039216	      6.43494017	     -1.25666564	    -10.85201924
     12.14000000	     -8.40882190	     -3.57085850	     15.81615678	     -1.86298447	     -0.02625734	     -0.31961155	     32.66931363	     -2.57932896	    -15.28774415	    -15.49489808	     -5.75248930	      4.29122068	     17.55441477	     -4.16347469	     -2.95442971	     11.41200267	    -20.85452897	      4.99410843	     15.02436469	     25.65566076	      6.73992646	     -0.91027482	    -10.61945550
     12.14500000	     -8.47456591	     -3.79617499	     15.72872618	     -1.85617965	     -0.02657311	     -0.31888581	     32.81045803	     -2.18612913	    -14.77582072	    -16.11301709	     -6.48718669	      3.52829442	     17.66536677	     -3.79669316	     -3.42365677	     10.55539570	    -21.86757757	      3.99645215	     16.41036866	     27.34172230	      7.00055221	     -0.64854986	    -10.36721236
     12.15000000	     -8.51575081	     -4.07716585	     15.61236868	     -1.84940359	     -0.02679918	     -0.31815859	     32.95708483	     -1.70382995	    -14.19126881	    -16.78003623	     -7.07555284	      2.82672566	     17.59105573	     -3.37985308	     -3.96837156	      9.61425133	    -22.98382027	      2.93256315	     17.80248558	     28.97444530	      7.24264122	     -0.30426957	    -10.09302055
     12.15500000	     -8.54689055	     -4.34479875	     15.44985936	     -1.84253740	     -0.02688879	     -0.31736584	     33.08490659	     -1.17050186	    -13.42520483	    -17.46236108	     -7.54731473	      2.05677662	     17.31638422	     -2.97090731	     -4.52192450	      8.65124772	    -24.09107660	      1.62856550	     19.18429404	     30.73136464	      7.48226833	      0.03274668	     -9.80378776
     12.16000000	     -8.55317859	     -4.60234506	     15.26530049	     -1.83570408	     -0.02686123	     -0.31650047	     33.19378088	     -0.60143683	    -12.57690911	    -18.17968399	     -7.92332955	      1.23256842	     16.82540579	     -2.54611994	     -5.08772223	      7.67970075	    -25.25198798	      0.13296741	     20.52090804	     32.52512530	      7.68297991	      0.36283177	     -9.47496750
     12.16500000	     -8.53790175	     -4.84401563	     15.05268926	     -1.82882386	     -0.02673541	     -0.31562669	     33.26201383	     -0.00763083	    -11.68259355	    -18.90023143	     -8.16099371	      0.40942084	     16.15433740	     -2.12657375	     -5.65262751	      6.72455990	    -26.43754131	     -1.56368048	     21.78823239	     34.32834662	      7.86120250	      0.69404671	     -9.13894663
     12.17000000	     -8.50982227	     -5.12132895	     14.81167532	     -1.82189897	     -0.02656265	     -0.31478311	     33.29896331	      0.64475720	    -10.80304587	    -19.59525257	     -8.33026993	     -0.38409306	     15.45268532	     -1.66635319	     -6.26551579	      5.74934161	    -27.72066373	     -3.34988665	     22.96937439	     35.80963673	      8.03908421	      1.07868774	     -8.79713709
     12.17500000	     -8.41474647	     -5.27095915	     14.60155680	     -1.81497675	     -0.02620964	     -0.31394079	     33.21457222	      1.18469602	     -9.95326752	    -20.31803222	     -8.10023281	     -0.96915159	     14.32348452	     -1.32025554	     -6.76365044	      4.95363567	    -28.87296707	     -5.63508969	     23.96167547	     38.03592415	      8.11058648	      1.33104689	     -8.48906249
     12.18000000	     -8.34902438	     -5.42767332	     14.36099201	     -1.80809054	     -0.02586704	     -0.31306133	     33.13080455	      1.74850833	     -9.16023685	    -20.95451494	     -8.09028131	     -1.81739486	     13.43494901	     -0.88048852	     -7.25237900	      4.22852605	    -30.19152841	     -7.80667370	     24.95763910	     39.16241710	      8.20457528	      1.59212960	     -8.12983075
     12.18500000	     -8.28125366	     -5.61425013	     14.10121366	     -1.80115930	     -0.02553523	     -0.31224416	     32.99162538	      2.34426653	     -8.38892219	    -21.50264924	     -8.01725303	     -2.55861609	     12.73309642	     -0.39843746	     -7.76751482	      3.52834141	    -31.58305165	    -10.05608071	     25.76861258	     39.98239910	      8.31782118	      1.89955442	     -7.81649427
     12.19000000	     -8.18856510	     -5.74988695	     13.85914512	     -1.79432582	     -0.02514437	     -0.31146354	     32.78434270	      2.86831684	     -7.75697607	    -22.01205644	     -7.77346657	     -3.11998402	     11.98112053	      0.07822324	     -8.22021411	      2.96257127	    -32.97620197	    -12.48601659	     26.40746370	     40.80443960	      8.37396521	      2.16001536	     -7.50593811
     12.19500000	     -8.10529974	     -5.88367952	     13.60389861	     -1.78752016	     -0.02477453	     -0.31072246	     32.53687382	      3.37312843	     -7.23391118	    -22.43349712	     -7.46385882	     -3.55350183	     11.50024915	      0.60110479	     -8.64701872	      2.49688388	    -34.44322997	    -14.85539416	     26.91920998	     41.05287688	      8.44111881	      2.42518676	     -7.20318577
     12.20000000	     -8.03239307	     -6.03950577	     13.35617649	     -1.78072703	     -0.02440569	     -0.31007232	     32.24187703	      3.87084155	     -6.82372477	    -22.73945754	     -7.14115544	     -3.91353515	     11.24367290	      1.17515734	     -9.06535916	      2.13340492	    -35.96014761	    -17.18620096	     27.16029852	     40.87856829	      8.53178212	      2.71905313	     -6.91006605
